<?xml version="1.0" encoding="UTF-8" standalone="no"?>
<svg xmlns="http://www.w3.org/2000/svg" xmlns:xlink="http://www.w3.org/1999/xlink" contentScriptType="application/ecmascript" contentStyleType="text/css" height="1200px" preserveAspectRatio="none" style="width:1200px;height:1200px;background:#FFFFFF;" version="1.1" viewBox="0 0 1200 1200" width="1200px" zoomAndPan="magnify">
  <defs>
    <filter height="300%" id="f1" width="300%" x="-1" y="-1">
      <feGaussianBlur result="blurOut" stdDeviation="2.0"/>
      <feColorMatrix in="blurOut" result="blurOut2" type="matrix" values="0 0 0 0 0 0 0 0 0 0 0 0 0 0 0 0 0 0 .4 0"/>
      <feOffset dx="4.0" dy="4.0" in="blurOut2" result="blurOut3"/>
      <feBlend in="SourceGraphic" in2="blurOut3" mode="normal"/>
    </filter>
  </defs>
  <g>
    <text fill="#000000" font-family="sans-serif" font-size="24" font-weight="bold" lengthAdjust="spacing" textLength="380" x="410" y="40.9">MicroBlog Application Architecture</text>
    
    <!-- Data Structures Package -->
    <rect fill="#FFFFFF" filter="url(#f1)" height="400" rx="12.5" ry="12.5" style="stroke:#000000;stroke-width:1.5;" width="350" x="50" y="100"/>
    <text fill="#000000" font-family="sans-serif" font-size="16" font-weight="bold" lengthAdjust="spacing" textLength="130" x="160" y="125">Data Structures</text>
    
    <!-- SQLite Database -->
    <rect fill="#FFFFFF" filter="url(#f1)" height="320" rx="12.5" ry="12.5" style="stroke:#000000;stroke-width:1.5;" width="300" x="75" y="150"/>
    <text fill="#000000" font-family="sans-serif" font-size="14" font-style="italic" lengthAdjust="spacing" textLength="110" x="170" y="170">SQLite Database</text>
    
    <!-- Database Tables -->
    <rect fill="#FFFFFF" filter="url(#f1)" height="30" style="stroke:#000000;stroke-width:1.5;" width="100" x="100" y="190"/>
    <text fill="#000000" font-family="sans-serif" font-size="12" lengthAdjust="spacing" textLength="70" x="115" y="210">User Table</text>
    
    <rect fill="#FFFFFF" filter="url(#f1)" height="30" style="stroke:#000000;stroke-width:1.5;" width="100" x="100" y="230"/>
    <text fill="#000000" font-family="sans-serif" font-size="12" lengthAdjust="spacing" textLength="70" x="115" y="250">Post Table</text>
    
    <rect fill="#FFFFFF" filter="url(#f1)" height="30" style="stroke:#000000;stroke-width:1.5;" width="100" x="100" y="270"/>
    <text fill="#000000" font-family="sans-serif" font-size="12" lengthAdjust="spacing" textLength="80" x="110" y="290">Image Table</text>
    
    <rect fill="#FFFFFF" filter="url(#f1)" height="30" style="stroke:#000000;stroke-width:1.5;" width="100" x="100" y="310"/>
    <text fill="#000000" font-family="sans-serif" font-size="12" lengthAdjust="spacing" textLength="70" x="115" y="330">Link Table</text>
    
    <rect fill="#FFFFFF" filter="url(#f1)" height="30" style="stroke:#000000;stroke-width:1.5;" width="120" x="100" y="350"/>
    <text fill="#000000" font-family="sans-serif" font-size="12" lengthAdjust="spacing" textLength="100" x="110" y="370">Upvotes Table</text>
    
    <rect fill="#FFFFFF" filter="url(#f1)" height="30" style="stroke:#000000;stroke-width:1.5;" width="140" x="100" y="390"/>
    <text fill="#000000" font-family="sans-serif" font-size="12" lengthAdjust="spacing" textLength="120" x="110" y="410">User Follows Table</text>
    
    <!-- Table Notes -->
    <path d="M250,190 L250,240 L400,240 L400,200 L390,190 L250,190" fill="#FFFFFF" filter="url(#f1)" style="stroke:#000000;stroke-width:1.0;"/>
    <path d="M390,190 L390,200 L400,200" fill="none" style="stroke:#000000;stroke-width:1.0;"/>
    <text fill="#000000" font-family="sans-serif" font-size="10" lengthAdjust="spacing" textLength="130" x="260" y="205">- id (PK)</text>
    <text fill="#000000" font-family="sans-serif" font-size="10" lengthAdjust="spacing" textLength="100" x="260" y="217">- email (unique)</text>
    <text fill="#000000" font-family="sans-serif" font-size="10" lengthAdjust="spacing" textLength="90" x="260" y="229">- password_hash</text>
    
    <path d="M250,250 L250,320 L400,320 L400,260 L390,250 L250,250" fill="#FFFFFF" filter="url(#f1)" style="stroke:#000000;stroke-width:1.0;"/>
    <path d="M390,250 L390,260 L400,260" fill="none" style="stroke:#000000;stroke-width:1.0;"/>
    <text fill="#000000" font-family="sans-serif" font-size="10" lengthAdjust="spacing" textLength="130" x="260" y="265">- id (PK)</text>
    <text fill="#000000" font-family="sans-serif" font-size="10" lengthAdjust="spacing" textLength="60" x="260" y="277">- content</text>
    <text fill="#000000" font-family="sans-serif" font-size="10" lengthAdjust="spacing" textLength="90" x="260" y="289">- author_id (FK)</text>
    <text fill="#000000" font-family="sans-serif" font-size="10" lengthAdjust="spacing" textLength="90" x="260" y="301">- parent_id (FK)</text>
    <text fill="#000000" font-family="sans-serif" font-size="10" lengthAdjust="spacing" textLength="110" x="260" y="313">- responder_id (FK)</text>
    
    <!-- Local File Storage Package -->
    <rect fill="#FFFFFF" filter="url(#f1)" height="250" rx="12.5" ry="12.5" style="stroke:#000000;stroke-width:1.5;" width="350" x="50" y="550"/>
    <text fill="#000000" font-family="sans-serif" font-size="16" font-weight="bold" lengthAdjust="spacing" textLength="150" x="150" y="575">Local File Storage</text>
    
    <!-- Static Files -->
    <rect fill="#FFFFFF" filter="url(#f1)" height="170" rx="12.5" ry="12.5" style="stroke:#000000;stroke-width:1.5;" width="300" x="75" y="600"/>
    <text fill="#000000" font-family="sans-serif" font-size="14" font-style="italic" lengthAdjust="spacing" textLength="80" x="185" y="620">Static Files</text>
    
    <!-- Profile Images -->
    <rect fill="#FFFFFF" filter="url(#f1)" height="30" style="stroke:#000000;stroke-width:1.5;" width="120" x="100" y="640"/>
    <text fill="#000000" font-family="sans-serif" font-size="12" lengthAdjust="spacing" textLength="100" x="110" y="660">Profile Images</text>
    
    <!-- Profile Images Note -->
    <path d="M250,640 L250,730 L400,730 L400,650 L390,640 L250,640" fill="#FFFFFF" filter="url(#f1)" style="stroke:#000000;stroke-width:1.0;"/>
    <path d="M390,640 L390,650 L400,650" fill="none" style="stroke:#000000;stroke-width:1.0;"/>
    <text fill="#000000" font-family="sans-serif" font-size="10" lengthAdjust="spacing" textLength="130" x="260" y="655">/static/uploads/profile_images/</text>
    <text fill="#000000" font-family="sans-serif" font-size="10" lengthAdjust="spacing" textLength="130" x="260" y="667">- Stores user profile images</text>
    <text fill="#000000" font-family="sans-serif" font-size="10" lengthAdjust="spacing" textLength="120" x="260" y="679">- UUID-based filenames</text>
    <text fill="#000000" font-family="sans-serif" font-size="10" lengthAdjust="spacing" textLength="90" x="260" y="691">- Max size: 5MB</text>
    <text fill="#000000" font-family="sans-serif" font-size="10" lengthAdjust="spacing" textLength="130" x="260" y="703">- Formats: JPG, PNG, GIF</text>
    
    <!-- Core Compute Logic Package -->
    <rect fill="#FFFFFF" filter="url(#f1)" height="500" rx="12.5" ry="12.5" style="stroke:#000000;stroke-width:1.5;" width="700" x="450" y="100"/>
    <text fill="#000000" font-family="sans-serif" font-size="16" font-weight="bold" lengthAdjust="spacing" textLength="170" x="715" y="125">Core Compute Logic</text>
    
    <!-- Flask Application -->
    <rect fill="#FFFFFF" filter="url(#f1)" height="40" style="stroke:#000000;stroke-width:1.5;" width="150" x="725" y="150"/>
    <text fill="#000000" font-family="sans-serif" font-size="14" lengthAdjust="spacing" textLength="130" x="735" y="175">Flask Application</text>
    
    <!-- Route Handlers Package -->
    <rect fill="#FFFFFF" filter="url(#f1)" height="150" rx="12.5" ry="12.5" style="stroke:#000000;stroke-width:1.5;" width="200" x="500" y="220"/>
    <text fill="#000000" font-family="sans-serif" font-size="14" font-style="italic" lengthAdjust="spacing" textLength="110" x="545" y="240">Route Handlers</text>
    
    <rect fill="#FFFFFF" filter="url(#f1)" height="30" style="stroke:#000000;stroke-width:1.5;" width="120" x="540" y="260"/>
    <text fill="#000000" font-family="sans-serif" font-size="12" lengthAdjust="spacing" textLength="80" x="560" y="280">User Routes</text>
    
    <rect fill="#FFFFFF" filter="url(#f1)" height="30" style="stroke:#000000;stroke-width:1.5;" width="120" x="540" y="300"/>
    <text fill="#000000" font-family="sans-serif" font-size="12" lengthAdjust="spacing" textLength="80" x="560" y="320">Post Routes</text>
    
    <rect fill="#FFFFFF" filter="url(#f1)" height="30" style="stroke:#000000;stroke-width:1.5;" width="120" x="540" y="340"/>
    <text fill="#000000" font-family="sans-serif" font-size="12" lengthAdjust="spacing" textLength="100" x="550" y="360">Profile Routes</text>
    
    <!-- Business Logic Package -->
    <rect fill="#FFFFFF" filter="url(#f1)" height="190" rx="12.5" ry="12.5" style="stroke:#000000;stroke-width:1.5;" width="200" x="500" y="390"/>
    <text fill="#000000" font-family="sans-serif" font-size="14" font-style="italic" lengthAdjust="spacing" textLength="110" x="545" y="410">Business Logic</text>
    
    <rect fill="#FFFFFF" filter="url(#f1)" height="30" style="stroke:#000000;stroke-width:1.5;" width="150" x="525" y="430"/>
    <text fill="#000000" font-family="sans-serif" font-size="12" lengthAdjust="spacing" textLength="130" x="535" y="450">User Management</text>
    
    <rect fill="#FFFFFF" filter="url(#f1)" height="30" style="stroke:#000000;stroke-width:1.5;" width="150" x="525" y="470"/>
    <text fill="#000000" font-family="sans-serif" font-size="12" lengthAdjust="spacing" textLength="130" x="535" y="490">Post Management</text>
    
    <rect fill="#FFFFFF" filter="url(#f1)" height="30" style="stroke:#000000;stroke-width:1.5;" width="150" x="525" y="510"/>
    <text fill="#000000" font-family="sans-serif" font-size="12" lengthAdjust="spacing" textLength="130" x="535" y="530">File Management</text>
    
    <rect fill="#FFFFFF" filter="url(#f1)" height="30" style="stroke:#000000;stroke-width:1.5;" width="150" x="525" y="550"/>
    <text fill="#000000" font-family="sans-serif" font-size="12" lengthAdjust="spacing" textLength="100" x="550" y="570">Authentication</text>
    
    <!-- Template Engine Package -->
    <rect fill="#FFFFFF" filter="url(#f1)" height="100" rx="12.5" ry="12.5" style="stroke:#000000;stroke-width:1.5;" width="200" x="900" y="220"/>
    <text fill="#000000" font-family="sans-serif" font-size="14" font-style="italic" lengthAdjust="spacing" textLength="130" x="935" y="240">Template Engine</text>
    
    <rect fill="#FFFFFF" filter="url(#f1)" height="30" style="stroke:#000000;stroke-width:1.5;" width="150" x="925" y="260"/>
    <text fill="#000000" font-family="sans-serif" font-size="12" lengthAdjust="spacing" textLength="130" x="935" y="280">Jinja2 Templates</text>
    
    <!-- Relationships -->
    <!-- App to Route Handlers -->
    <path d="M725,170 L600,170 L600,220" fill="none" stroke="#000000" stroke-width="1.5"/>
    <polygon fill="#000000" points="600,215,604,220,596,220,600,215" stroke="#000000" stroke-width="1.5"/>
    
    <!-- App to Template Engine -->
    <path d="M875,170 L1000,170 L1000,220" fill="none" stroke="#000000" stroke-width="1.5"/>
    <polygon fill="#000000" points="1000,215,1004,220,996,220,1000,215" stroke="#000000" stroke-width="1.5"/>
    
    <!-- User Routes to User Management -->
    <path d="M600,290 L600,430" fill="none" stroke="#000000" stroke-width="1.5"/>
    <polygon fill="#000000" points="600,425,604,430,596,430,600,425" stroke="#000000" stroke-width="1.5"/>
    
    <!-- Post Routes to Post Management -->
    <path d="M600,330 L600,470" fill="none" stroke="#000000" stroke-width="1.5"/>
    <polygon fill="#000000" points="600,465,604,470,596,470,600,465" stroke="#000000" stroke-width="1.5"/>
    
    <!-- Profile Routes to File Management -->
    <path d="M600,370 L600,510" fill="none" stroke="#000000" stroke-width="1.5"/>
    <polygon fill="#000000" points="600,505,604,510,596,510,600,505" stroke="#000000" stroke-width="1.5"/>
    
    <!-- User Management to Authentication -->
    <path d="M600,460 L600,550" fill="none" stroke="#000000" stroke-width="1.5"/>
    <polygon fill="#000000" points="600,545,604,550,596,550,600,545" stroke="#000000" stroke-width="1.5"/>
    
    <!-- User Management to Database -->
    <path d="M525,445 L225,445 L225,470" fill="none" stroke="#000000" stroke-width="1.5"/>
    <polygon fill="#000000" points="225,465,229,470,221,470,225,465" stroke="#000000" stroke-width="1.5"/>
    
    <!-- Post Management to Database -->
    <path d="M525,485 L225,485 L225,470" fill="none" stroke="#000000" stroke-width="1.5"/>
    <polygon fill="#000000" points="225,465,229,470,221,470,225,465" stroke="#000000" stroke-width="1.5"/>
    
    <!-- File Management to Profile Images -->
    <path d="M525,525 L160,525 L160,640" fill="none" stroke="#000000" stroke-width="1.5"/>
    <polygon fill="#000000" points="160,635,164,640,156,640,160,635" stroke="#000000" stroke-width="1.5"/>
    
    <!-- Templates to Database (dotted) -->
    <path d="M925,275 L225,275" fill="none" stroke="#000000" stroke-dasharray="4.0,4.0" stroke-width="1.5"/>
    <text fill="#000000" font-family="sans-serif" font-size="12" lengthAdjust="spacing" textLength="40" x="550" y="265">reads</text>
    <polygon fill="#000000" points="230,275,225,275,225,275,230,275" stroke="#000000" stroke-width="1.5"/>
    
    <!-- User Management to Profile Images (dotted) -->
    <path d="M525,445 L160,445 L160,640" fill="none" stroke="#000000" stroke-dasharray="4.0,4.0" stroke-width="1.5"/>
    <text fill="#000000" font-family="sans-serif" font-size="12" lengthAdjust="spacing" textLength="60" x="300" y="435">manages</text>
    <polygon fill="#000000" points="165,635,160,640,155,640,160,635" stroke="#000000" stroke-width="1.5"/>
  </g>
</svg>
